<svg version="1.1" xmlns="http://www.w3.org/2000/svg" x="0" y="0" width="71" height="29" viewBox="0 0 71 29" enable-background="new 0 0 71 29" xml:space="preserve"><path d="M9.7 11.5c-3.1-1.3-4.6-2.5-4.6-4.4 0-1.5 1.2-2.7 3.4-2.7 2.1 0 3.7 1.1 5.4 2.1 0.5 0.3 1 0 1.4-0.5l1.5-2.2c0.3-0.4 0.2-1.1-0.2-1.3C15.7 2 12.7 0 8.8 0 2.6 0 0.1 4 0.1 7.5c0 4.6 3.6 6.9 7.3 8.4 3.2 1.3 4.9 2.7 4.9 4.7 0 1.7-1.5 3-3.5 3 -2.5 0-4.2-1.2-5.8-2.4 -0.4-0.3-1-0.3-1.3 0.3l-1.4 2.4c-0.3 0.6-0.2 0.9 0.2 1.2 1.1 1 3.6 3 8.5 3 5.4 0 8.9-3.7 8.9-7.7C17.8 15.3 13.4 13.1 9.7 11.5zM26.2 16.6c4.5 0 8.2-3.7 8.2-8.3 0-4.6-3.7-8.3-8.2-8.3 -4.5 0-8.2 3.7-8.2 8.3C18 13 21.6 16.6 26.2 16.6zM26.2 4.5c2 0 3.8 1.8 3.8 3.8 0 2.1-1.7 3.8-3.8 3.8 -2.1 0-3.7-1.7-3.7-3.8C22.5 6.2 24.2 4.5 26.2 4.5zM41.7 23.1h-8v-2.6c0-0.4-0.3-0.7-0.7-0.7h-3.2c-0.4 0-0.7 0.3-0.7 0.7v2.6h-5v-2.5c0-0.4-0.3-0.7-0.7-0.7h-3.2c-0.4 0-0.7 0.3-0.7 0.7v6.8c0 0.4 0.3 0.7 0.7 0.7h21.7c0.4 0 0.7-0.3 0.7-0.7v-3.6C42.4 23.4 42.1 23.1 41.7 23.1zM41.7 0.2h-3.6c-0.4 0-0.7 0.4-0.7 0.7v14.9c0 0.4 0.4 0.7 0.7 0.7h3.6c0.4 0 0.7-0.4 0.7-0.7V0.9C42.4 0.5 42.1 0.2 41.7 0.2zM67.7 0.4c-1.9 0-3.3 1.5-3.3 3.4s1.5 3.4 3.3 3.4c1.8 0 3.3-1.5 3.3-3.4S69.5 0.4 67.7 0.4zM57.5 0.8c-0.1-0.2-0.3-0.4-0.7-0.4h-0.4c-0.3 0-0.5 0.2-0.7 0.4L43.8 27.1c-0.2 0.5 0.1 1 0.7 1h3.4c0.6 0 1-0.4 1.1-0.8l2.6-6H61.6l2.7 6c0.3 0.5 0.5 0.8 1.1 0.8h3.4c0.6 0 0.9-0.5 0.7-1L57.5 0.8zM53.6 16.8l2.9-6.6h0.1l3 6.6H53.6z"/></svg>